<?xml version="1.0" standalone="no"?>
<!DOCTYPE svg PUBLIC "-//W3C//DTD SVG 20010904//EN"
 "http://www.w3.org/TR/2001/REC-SVG-20010904/DTD/svg10.dtd">
<svg version="1.0" xmlns="http://www.w3.org/2000/svg"
 width="1153.000000pt" height="1147.000000pt" viewBox="0 0 1153.000000 1147.000000"
 preserveAspectRatio="xMidYMid meet">
<metadata>
Created by potrace 1.13, written by Peter Selinger 2001-2015
</metadata>
<g transform="translate(0.000000,1147.000000) scale(0.100000,-0.100000)"
fill="#FFF" stroke="none">
<path d="M5430 11403 c-594 -42 -994 -115 -1455 -263 -922 -298 -1776 -865
-2473 -1645 -904 -1011 -1368 -2164 -1422 -3534 -58 -1486 397 -2821 1336
-3911 557 -646 1242 -1175 1944 -1500 419 -193 779 -310 1250 -404 557 -111
1235 -137 1845 -70 1205 131 2275 632 3198 1496 220 206 494 511 681 758 499
658 836 1398 996 2190 85 420 115 737 114 1215 0 374 -10 534 -55 855 -143
1025 -574 1980 -1258 2781 -156 182 -397 434 -537 561 -1009 912 -2111 1381
-3449 1468 -144 9 -603 11 -715 3z m750 -494 c1231 -79 2336 -586 3236 -1484
344 -343 580 -635 805 -997 367 -590 599 -1243 693 -1953 36 -270 41 -355 41
-755 0 -442 -9 -569 -65 -910 -151 -912 -528 -1715 -1145 -2436 -758 -886
-1719 -1484 -2765 -1719 -728 -163 -1586 -174 -2300 -29 -1137 231 -2102 815
-2915 1764 -588 686 -979 1513 -1124 2380 -193 1150 -37 2311 439 3259 525
1047 1487 1979 2531 2450 785 354 1610 492 2569 430z"/>
<path d="M5435 10400 c-632 -44 -1189 -191 -1715 -454 -535 -268 -1029 -658
-1449 -1146 -593 -688 -939 -1463 -1050 -2350 -63 -503 -51 -986 36 -1474 l27
-148 -21 -17 c-28 -22 -36 -53 -22 -85 17 -37 46 -41 162 -21 331 56 745 29
1032 -66 168 -56 396 -178 528 -282 l39 -30 -109 -56 c-59 -31 -129 -71 -156
-89 l-47 -33 -60 36 c-148 90 -320 157 -500 196 -187 41 -650 27 -742 -22 -21
-11 -33 -50 -24 -82 10 -42 47 -50 144 -30 65 13 139 17 297 18 232 0 333 -15
498 -76 89 -33 257 -117 257 -129 0 -4 -34 -36 -76 -71 -42 -35 -101 -90 -130
-123 l-53 -58 -93 31 c-134 44 -216 60 -358 67 -138 7 -242 -6 -271 -32 -25
-22 -25 -76 0 -98 16 -15 35 -16 153 -10 150 8 249 -3 378 -41 45 -12 84 -25
86 -28 3 -3 -17 -36 -44 -74 -27 -37 -68 -99 -91 -136 -38 -63 -171 -320 -171
-332 0 -3 24 -5 53 -5 65 0 279 -34 373 -59 115 -30 301 -106 412 -168 99 -56
273 -173 271 -183 0 -3 -30 -19 -67 -37 -37 -17 -105 -55 -151 -82 -46 -28
-87 -51 -91 -51 -4 0 -34 16 -66 35 -32 19 -67 35 -79 35 -36 0 -65 -28 -65
-64 0 -35 19 -57 83 -95 21 -13 37 -30 37 -41 0 -22 36 -50 62 -50 28 0 158
68 158 83 0 17 203 126 318 171 119 47 304 92 457 112 167 22 517 14 660 -15
410 -85 703 -238 971 -508 138 -138 221 -239 307 -368 106 -161 201 -385 242
-569 24 -106 35 -116 127 -111 88 5 100 16 117 107 42 213 177 514 308 685
185 240 308 362 507 498 372 255 792 368 1248 336 302 -22 544 -88 800 -218
119 -61 128 -64 155 -51 41 19 52 61 27 95 -21 28 -203 129 -286 160 -27 9
-48 20 -48 24 0 14 234 163 339 216 109 56 260 108 440 152 84 21 108 31 124
52 26 35 13 78 -29 95 -24 9 -47 7 -138 -14 -106 -25 -110 -26 -120 -8 -33 57
-134 184 -189 238 -295 292 -543 431 -883 498 -201 39 -485 42 -659 5 -279
-59 -563 -208 -789 -415 -63 -59 -215 -248 -272 -340 l-35 -58 -86 24 c-47 13
-121 29 -164 35 -44 7 -79 17 -79 23 0 6 22 48 49 93 267 448 696 787 1153
908 380 101 785 97 1141 -10 157 -48 183 -58 317 -127 208 -106 437 -282 556
-428 29 -36 74 -90 99 -120 25 -30 71 -92 101 -136 62 -93 90 -109 133 -76 54
40 39 84 -88 250 -39 51 -71 95 -71 97 0 14 177 56 272 65 112 11 130 17 149
53 14 25 -6 74 -35 83 -61 20 -253 -6 -378 -51 -40 -15 -81 -29 -91 -32 -13
-4 -41 17 -100 74 -45 44 -113 103 -150 133 l-68 53 48 28 c59 35 227 102 308
123 137 35 259 48 447 47 182 -1 188 0 203 21 20 30 19 61 -4 89 -19 23 -25
24 -187 27 -92 2 -211 -1 -265 -8 -204 -23 -408 -88 -582 -185 l-97 -55 -78
43 c-42 23 -111 57 -152 76 -41 19 -78 37 -83 41 -4 3 34 36 85 72 355 250
760 365 1218 344 80 -3 164 -9 187 -12 36 -6 45 -3 67 19 33 33 33 61 0 94
l-26 26 21 151 c37 260 41 323 48 622 6 311 -3 505 -38 769 -92 702 -345 1355
-747 1929 -376 535 -922 1049 -1457 1369 -574 344 -1225 550 -1915 607 -179
15 -593 20 -745 10z m729 -5646 c199 -28 362 -78 546 -165 111 -53 340 -194
355 -219 3 -5 -18 -21 -47 -36 -29 -15 -97 -53 -150 -85 l-97 -59 -58 37
c-138 88 -342 166 -535 205 -150 30 -459 32 -613 4 -178 -32 -424 -126 -554
-212 l-36 -23 -115 58 c-63 32 -136 66 -162 76 -27 10 -48 21 -48 25 0 7 124
97 205 148 71 44 243 124 346 160 279 98 647 131 963 86z m-2009 -415 c249
-31 564 -144 766 -274 251 -162 484 -400 643 -655 25 -41 46 -77 46 -81 0 -4
-35 -12 -77 -18 -43 -6 -119 -22 -170 -34 l-92 -23 -58 86 c-76 114 -291 327
-408 406 -238 161 -466 247 -730 275 -133 14 -402 6 -530 -16 -115 -20 -298
-81 -406 -135 -252 -127 -501 -353 -656 -596 l-45 -71 -91 23 c-51 13 -125 29
-164 35 -44 7 -73 17 -73 24 0 20 121 214 190 305 229 301 592 567 912 669
279 88 632 118 943 80z m2022 -48 c51 -11 127 -32 170 -46 88 -29 306 -133
301 -144 -2 -4 -39 -38 -83 -75 -44 -38 -103 -93 -131 -124 l-51 -55 -54 21
c-254 103 -561 107 -840 12 l-90 -31 -87 83 c-48 46 -115 105 -149 132 -35 27
-63 50 -63 52 0 2 44 26 98 52 143 72 319 125 482 146 19 2 118 3 220 1 138
-3 208 -9 277 -24z m1870 -351 c291 -23 527 -103 742 -253 137 -96 347 -302
415 -409 l17 -26 -38 -12 c-21 -7 -94 -39 -162 -72 l-124 -60 -26 33 c-124
161 -336 311 -530 373 -329 107 -705 64 -977 -109 -128 -82 -284 -233 -366
-355 l-16 -25 -34 19 c-18 11 -93 50 -165 86 l-133 67 42 59 c136 195 242 306
398 417 221 159 462 248 720 267 52 4 100 8 105 8 6 1 65 -3 132 -8z m-3857
-75 c273 -60 529 -197 723 -388 99 -97 223 -255 210 -267 -4 -3 -39 -19 -78
-35 -38 -15 -103 -46 -143 -67 l-73 -40 -123 119 c-245 236 -473 333 -786 335
-384 3 -682 -128 -907 -397 -32 -39 -69 -88 -82 -108 l-23 -38 -27 18 c-14 9
-90 49 -168 89 l-142 71 54 80 c63 92 192 236 274 306 218 188 498 311 776
341 94 10 441 -3 515 -19z m1892 -69 c43 -8 107 -24 143 -36 l65 -22 -31 -41
c-61 -81 -146 -214 -184 -289 l-39 -76 -136 4 -135 4 -57 98 c-31 53 -90 143
-132 199 l-75 102 63 20 c56 17 128 33 206 45 61 9 242 4 312 -8z m1968 -366
c196 -16 314 -56 468 -156 84 -55 204 -161 243 -215 l18 -26 -109 -81 -109
-82 -103 25 c-156 38 -315 56 -503 57 -242 1 -434 -26 -643 -88 -94 -28 -88
-30 -171 43 l-44 39 33 50 c47 69 207 224 288 278 140 93 285 140 507 165 6 0
62 -4 125 -9z m-4029 -50 c174 -17 328 -80 488 -200 81 -62 195 -175 189 -189
-2 -4 -49 -43 -106 -85 l-102 -78 -108 26 c-193 46 -245 51 -507 51 -279 0
-363 -10 -594 -70 l-132 -34 -64 51 -64 51 40 57 c173 246 413 387 717 419
108 12 134 12 243 1z m2159 -205 c291 -41 587 -163 824 -339 l79 -58 -112 -59
c-61 -32 -128 -70 -148 -84 -46 -31 -54 -31 -101 -1 -356 224 -862 295 -1302
181 -105 -27 -238 -82 -343 -141 l-98 -55 -107 54 c-59 30 -133 64 -164 77
-31 13 -55 27 -52 32 13 20 282 191 361 229 180 86 444 157 663 178 120 12
363 5 500 -14z m-60 -464 c162 -27 287 -69 433 -143 l98 -51 -38 -30 c-21 -17
-84 -76 -140 -130 l-102 -100 -67 27 c-119 48 -218 67 -374 73 -174 6 -293
-11 -433 -61 l-95 -34 -54 55 c-29 30 -97 90 -150 133 l-97 79 64 36 c124 69
286 123 454 150 93 16 399 13 501 -4z m-33 -507 c42 -8 102 -25 134 -37 l57
-22 -74 -100 c-94 -127 -207 -349 -264 -521 l-43 -132 -39 117 c-70 205 -193
431 -321 591 -20 25 -33 48 -29 51 11 10 132 47 187 58 84 15 308 13 392 -5z"/>
<path d="M7790 2490 c-135 -11 -209 -26 -335 -66 -284 -92 -554 -270 -738
-487 -95 -112 -205 -273 -258 -379 -40 -79 -99 -242 -99 -272 0 -44 90 -77
118 -43 6 7 25 53 43 103 125 355 417 686 754 853 261 130 490 175 778 151
194 -15 314 -45 550 -136 43 -17 50 -18 75 -4 20 12 28 25 30 52 4 44 -18 64
-121 107 -228 95 -537 142 -797 121z"/>
<path d="M3695 2440 c-204 -15 -370 -62 -569 -162 -128 -64 -166 -94 -166
-131 0 -28 38 -67 66 -67 11 0 72 27 135 59 208 108 336 145 555 162 488 36
881 -104 1204 -430 63 -64 143 -156 177 -204 72 -103 159 -269 199 -380 21
-62 33 -81 53 -88 35 -14 68 -4 87 27 16 24 16 29 -11 107 -142 421 -502 810
-913 987 -225 97 -524 141 -817 120z"/>
<path d="M7720 1961 c-116 -26 -169 -45 -278 -99 -190 -93 -452 -348 -452
-440 0 -35 30 -64 67 -64 28 0 45 15 119 114 22 30 87 93 144 140 127 106 246
168 392 203 114 27 184 32 330 20 117 -9 148 3 148 58 0 68 -25 77 -223 82
-134 4 -177 1 -247 -14z"/>
<path d="M3750 1930 c-85 -9 -193 -33 -245 -54 -39 -17 -54 -53 -36 -92 17
-39 49 -45 123 -24 228 63 518 47 706 -40 170 -79 354 -235 445 -377 47 -73
70 -90 109 -77 62 19 62 69 -2 167 -101 153 -309 327 -491 411 -174 80 -378
109 -609 86z"/>
</g>
</svg>
