<?xml version="1.0" encoding="UTF-8"?>
<!DOCTYPE svg PUBLIC "-//W3C//DTD SVG 1.1//EN" "http://www.w3.org/Graphics/SVG/1.1/DTD/svg11.dtd">
<!-- Creator: CorelDRAW X6 -->
<svg xmlns="http://www.w3.org/2000/svg" xml:space="preserve" width="7.63889in" height="5.55555in" version="1.1" style="shape-rendering:geometricPrecision; text-rendering:geometricPrecision; image-rendering:optimizeQuality; fill-rule:evenodd; clip-rule:evenodd"
viewBox="0 0 7639 5556"
 xmlns:xlink="http://www.w3.org/1999/xlink">
 <defs>
  <style type="text/css">
   <![CDATA[
    .str0 {stroke:white;stroke-width:27.7795;stroke-linecap:round}
    .str1 {stroke:white;stroke-width:97.2205;stroke-linecap:round}
    .fil1 {fill:none}
    .fil0 {fill:white}
   ]]>
  </style>
 </defs>
 <g id="__x0023_Layer_x0020_1">
  <metadata id="CorelCorpID_0Corel-Layer"/>
  <g id="_285147888">
   <path class="fil0" d="M2933 2992c-16,-69 -24,-140 -24,-215 0,-253 89,-469 268,-649 179,-179 395,-268 649,-268 12,0 23,0 35,1 238,8 443,97 613,267 179,179 269,395 269,649 0,66 -6,130 -18,191 -21,-3 -43,-4 -65,-4 -104,1 -193,36 -268,104 -41,-14 -85,-21 -131,-20 -51,1 -99,9 -144,26 -72,-65 -157,-99 -256,-101 -6,0 -12,0 -17,0 -104,1 -193,36 -269,103 -41,-13 -85,-20 -131,-19 -51,0 -99,9 -143,24 -77,-69 -168,-102 -274,-100 -32,0 -63,3 -93,10z"/>
   <path class="fil1 str0" d="M2933 2992c30,-7 61,-10 93,-10 106,-2 197,31 274,100 44,-16 92,-24 143,-24 46,-1 90,5 131,19 75,-68 165,-102 269,-103 6,0 12,0 17,0 98,3 183,37 256,101 44,-16 92,-25 144,-26 46,0 90,6 131,20 75,-68 164,-103 268,-104 22,0 44,1 65,4"/>
   <path class="fil1 str0" d="M4701 3060c-13,-1 -27,-2 -41,-2 -66,1 -125,19 -175,54 23,15 44,33 65,53 6,6 13,12 18,19 28,-16 59,-24 94,-24"/>
   <path class="fil1 str0" d="M4567 3184c19,20 34,41 48,63"/>
   <path class="fil1 str0" d="M4116 3074c-31,13 -61,29 -88,49 -19,14 -38,30 -56,47 -6,8 -13,15 -19,22 -27,31 -48,64 -63,100 33,3 64,9 94,20 11,-21 25,-41 41,-60 4,-6 9,-12 14,-17 19,-19 38,-34 58,-47 27,-18 57,-31 88,-39 24,-6 49,-9 76,-9 21,0 42,2 62,6 33,6 64,16 92,33 25,13 47,31 69,53 4,4 8,7 13,11 17,18 31,37 42,58 16,-5 33,-9 51,-13"/>
   <path class="fil1 str0" d="M3983 3312c32,11 63,27 92,47 9,-18 22,-35 37,-51 11,-10 22,-19 33,-28 27,-19 56,-30 88,-35 10,-2 21,-3 32,-3 3,0 6,0 9,1 33,0 63,7 92,22 19,10 37,23 55,40 11,11 21,23 29,36 28,-17 57,-31 88,-40"/>
   <path class="fil1 str0" d="M3889 3292c-9,-1 -19,-1 -28,-2 -6,0 -12,0 -17,0 -8,0 -17,0 -25,1 -34,2 -66,8 -97,18 -31,9 -60,22 -87,40 -21,13 -41,28 -59,44 32,11 64,26 94,44 50,-36 109,-54 176,-54 1,0 2,0 3,0 5,0 9,0 14,1"/>
   <line class="fil1 str0" x1="3860" y1="3384" x2="3861" y2= "3384" />
   <path class="fil1 str0" d="M3861 3384c63,2 118,21 167,56 27,-19 57,-35 88,-48 -13,-12 -27,-23 -41,-33"/>
   <path class="fil1 str0" d="M4450 3341c-21,13 -41,28 -59,44 30,9 58,22 85,38"/>
   <path class="fil1 str0" d="M4116 3392c44,-17 92,-25 144,-26 46,0 90,6 131,20"/>
   <path class="fil1 str0" d="M4391 3068c33,10 64,25 94,44"/>
   <path class="fil1 str0" d="M4028 3122c-49,-35 -105,-54 -167,-57 -6,0 -11,0 -17,0 -67,0 -125,19 -176,55 23,15 44,32 65,53 6,6 12,12 18,18 29,-15 62,-23 97,-24 4,0 8,0 13,0 33,1 64,9 92,24"/>
   <path class="fil1 str0" d="M3300 3081c-32,13 -62,30 -89,49 -19,14 -38,30 -56,48 -6,7 -13,14 -19,21 -23,27 -41,55 -56,85 -3,5 -5,10 -8,16 3,0 5,0 8,1 30,3 59,9 87,19 11,-21 25,-41 41,-60 5,-6 10,-11 15,-16 18,-19 37,-35 57,-47 28,-18 57,-30 89,-38 25,-6 50,-8 76,-8 21,0 41,1 61,4 33,6 64,17 93,33 24,13 47,30 69,52 4,4 7,7 11,11 17,19 31,38 42,58"/>
   <path class="fil1 str0" d="M3166 3320c32,11 63,27 93,47 10,-18 22,-35 37,-51 10,-10 21,-20 33,-28 26,-18 56,-29 88,-33 11,-2 21,-3 32,-3 3,0 6,0 9,0 33,0 63,7 91,22 19,10 38,23 55,40 12,11 22,22 30,35"/>
   <path class="fil1 str0" d="M3259 3367c14,10 28,21 41,33 44,-16 92,-25 143,-25 46,-1 90,5 131,19"/>
   <path class="fil1 str0" d="M3818 3291c-17,-36 -39,-69 -67,-100"/>
   <path class="fil1 str0" d="M3668 3120c-30,-19 -61,-33 -94,-44"/>
   <path class="fil1 str0" d="M3862 3693c13,-69 42,-130 90,-183 -28,-15 -59,-24 -92,-25 -4,0 -8,0 -13,0 -36,0 -68,9 -97,24 50,54 81,116 95,185"/>
   <path class="fil1 str0" d="M3279 3514c28,-17 57,-30 89,-38 25,-6 50,-8 76,-8 21,0 41,2 61,5 33,6 64,16 93,33 24,13 47,31 69,52 4,4 7,8 11,12 34,37 57,77 71,122"/>
   <path class="fil1 str0" d="M3668 3437c23,15 44,32 65,53 6,6 12,13 18,19"/>
   <path class="fil1 str0" d="M3379 3581c12,-4 25,-7 38,-9 11,-1 21,-2 32,-2 3,0 6,0 9,0 33,0 63,7 91,22 19,10 38,23 55,40 13,12 23,24 31,38 1,2 3,5 5,8"/>
   <path class="fil1 str0" d="M3960 3685c12,-42 33,-80 64,-115 4,-6 9,-12 14,-17 19,-19 38,-34 58,-47 27,-17 57,-30 88,-39 24,-6 49,-9 76,-9 21,0 42,2 62,6 28,5 55,13 81,26"/>
   <path class="fil1 str0" d="M4085 3659c7,-12 16,-23 26,-33 11,-10 22,-19 33,-28 27,-19 56,-30 88,-35 10,-2 21,-3 32,-2 3,0 6,0 9,1 9,0 18,1 26,2"/>
   <path class="fil1 str0" d="M3952 3510c6,-7 13,-15 19,-22 18,-18 37,-34 56,-48"/>
   <path class="fil1 str0" d="M3211 3131c-54,-39 -115,-58 -184,-56 -24,0 -47,3 -69,8"/>
   <path class="fil1 str0" d="M2998 3178c11,-2 22,-3 33,-3 38,0 73,8 104,24"/>
   <path class="fil1 str0" d="M3206 3452c2,-1 4,-3 6,-4 -10,-7 -20,-13 -30,-19"/>
   <path class="fil1 str0" d="M3211 3448c27,-19 57,-36 89,-49"/>
   <path class="fil1 str1" d="M4597 3569c-213,213 -470,319 -771,319 -301,0 -558,-106 -771,-319 -213,-213 -319,-470 -319,-771 0,-301 106,-558 319,-771 213,-213 470,-319 771,-319 301,0 558,106 771,319 213,213 319,470 319,771 0,301 -106,558 -319,771"/>
  </g>
 </g>
</svg>
